<?xml version="1.0" standalone="no"?>
<!DOCTYPE svg PUBLIC "-//W3C//DTD SVG 20010904//EN"
 "http://www.w3.org/TR/2001/REC-SVG-20010904/DTD/svg10.dtd">
<svg version="1.0" xmlns="http://www.w3.org/2000/svg"
 width="989.000000pt" height="1280.000000pt" viewBox="0 0 989.000000 1280.000000"
 preserveAspectRatio="xMidYMid meet">
<metadata>
Created by potrace 1.15, written by Peter Selinger 2001-2017
</metadata>
<g transform="translate(0.000000,1280.000000) scale(0.100000,-0.100000)"
fill="#fb88b4" stroke="none">
<path d="M2596 10991 c-154 -200 -283 -477 -338 -728 -30 -133 -32 -425 -5
-553 41 -190 137 -406 254 -569 91 -126 278 -319 409 -422 214 -167 342 -279
474 -415 75 -77 152 -160 173 -185 l36 -45 -39 -81 -40 -80 -82 -40 c-145 -70
-251 -178 -313 -317 -28 -64 -55 -202 -55 -284 0 -54 -2 -59 -49 -107 -65 -65
-115 -151 -148 -250 -25 -73 -27 -93 -28 -245 0 -146 3 -174 23 -240 37 -119
89 -207 167 -286 98 -99 162 -129 275 -129 105 0 145 19 243 114 113 108 187
217 382 556 109 189 245 408 251 403 10 -11 100 -259 139 -382 107 -347 176
-722 205 -1111 11 -155 13 -630 3 -714 -6 -50 -9 -56 -51 -85 -277 -190 -525
-455 -691 -734 -77 -129 -105 -185 -181 -362 -121 -281 -234 -485 -380 -690
-293 -409 -694 -764 -1094 -966 -64 -33 -116 -62 -116 -65 0 -4 59 -62 130
-129 l131 -123 51 24 c64 30 258 157 359 235 276 213 527 485 724 784 156 236
252 428 370 745 156 420 313 674 583 943 73 74 136 131 139 128 9 -9 -26 -202
-68 -373 -64 -264 -170 -546 -310 -824 -55 -111 -67 -128 -155 -212 -52 -50
-137 -143 -188 -206 -51 -64 -153 -192 -228 -286 -170 -214 -330 -388 -492
-538 -145 -134 -354 -303 -474 -385 -52 -35 -82 -62 -80 -71 6 -31 40 -21 121
35 321 222 695 582 982 944 235 296 276 347 320 395 l37 40 -23 -40 c-49 -88
-236 -364 -335 -496 -265 -353 -582 -698 -907 -988 -70 -62 -127 -116 -127
-120 0 -3 91 -30 203 -60 l202 -53 78 83 c283 302 588 689 822 1047 79 120 81
122 155 161 41 21 118 54 170 72 80 28 110 33 186 33 84 1 94 -1 139 -29 68
-42 101 -94 121 -190 32 -159 83 -208 153 -149 56 47 36 103 -77 216 -37 36
-83 85 -102 109 -19 23 -48 50 -63 60 l-29 17 29 6 c15 3 64 10 108 16 160 22
432 71 530 96 90 22 139 38 365 120 92 33 224 33 296 0 64 -30 115 -90 144
-169 39 -106 80 -157 125 -157 9 0 30 14 47 30 25 26 29 36 24 63 -8 39 -54
88 -128 137 -31 21 -69 52 -84 69 -51 60 -193 121 -251 107 -12 -4 -23 -4 -23
-2 0 3 32 26 72 53 39 26 111 82 158 124 48 42 116 95 153 118 72 46 127 102
127 129 0 27 -26 58 -59 72 -52 21 -88 -9 -143 -120 -38 -76 -61 -108 -114
-158 -100 -94 -295 -219 -411 -263 -27 -10 -26 -6 15 48 27 37 62 140 62 186
0 17 12 65 27 106 33 96 37 186 9 207 -28 20 -69 17 -100 -7 -23 -18 -26 -27
-26 -82 0 -34 7 -84 16 -112 39 -124 8 -244 -85 -327 -120 -108 -212 -133
-811 -223 -275 -42 -370 -64 -494 -114 l-91 -36 83 145 c70 121 251 472 263
509 5 15 184 65 359 101 510 103 1079 430 1586 911 170 162 232 194 357 187
84 -4 155 -34 229 -98 l47 -41 -15 -42 c-9 -23 -18 -80 -21 -127 -6 -98 3
-114 63 -114 52 0 79 32 78 95 -1 63 9 52 30 -36 23 -95 52 -154 82 -161 63
-16 111 29 99 93 -5 27 -24 54 -74 104 -43 43 -58 64 -43 58 38 -15 61 -10 87
16 32 31 33 77 3 105 -28 26 -99 47 -202 60 -64 8 -84 15 -112 39 -84 74 -201
117 -293 108 -31 -3 -65 -9 -76 -13 -26 -10 77 111 203 239 162 165 291 234
471 252 72 7 75 7 163 -35 148 -71 218 -65 218 19 0 77 -49 96 -200 81 -52 -5
-142 -14 -200 -19 -58 -6 -133 -20 -168 -32 -142 -48 -285 -171 -533 -459 -69
-80 -183 -199 -253 -263 -125 -116 -356 -307 -370 -307 -4 0 1 12 12 28 95
133 178 409 189 621 2 58 11 138 19 178 19 96 18 173 -2 201 -20 29 -72 29
-109 0 -26 -20 -27 -25 -22 -80 3 -35 18 -84 37 -125 30 -65 31 -72 25 -153
-20 -264 -86 -476 -205 -650 -96 -141 -211 -225 -515 -377 -229 -115 -385
-169 -650 -223 -55 -11 -133 -29 -174 -41 -40 -11 -75 -18 -77 -16 -2 2 21 65
51 140 68 173 134 374 179 549 37 143 90 446 101 578 l7 76 101 66 c93 60 171
105 632 365 464 262 694 470 842 759 105 205 142 362 169 705 4 59 3 89 -5 93
-7 5 -11 -7 -11 -37 0 -69 -49 -342 -77 -431 -113 -359 -334 -623 -705 -843
-117 -69 -399 -216 -404 -210 -3 2 17 35 42 73 122 181 237 483 298 784 66
331 86 536 92 980 l4 325 48 22 c71 34 145 46 257 41 92 -3 108 -7 168 -37
125 -63 221 -168 412 -451 200 -294 323 -427 457 -493 98 -48 163 -59 310 -54
107 3 129 7 173 29 58 30 163 135 193 193 65 130 70 284 11 431 l-20 51 30 48
c188 296 -102 839 -577 1081 -48 25 -104 50 -124 56 -21 6 -38 14 -38 17 0 3
18 16 40 28 62 36 157 119 206 181 102 128 160 269 194 466 54 320 -8 553
-179 668 -25 17 -47 32 -49 33 -1 1 11 31 27 66 63 135 88 310 60 428 -34 151
-159 276 -310 310 -72 17 -189 13 -275 -9 -241 -62 -435 -238 -526 -477 -32
-84 -33 -85 -48 -62 -35 54 -106 120 -155 145 -47 23 -63 25 -139 22 -47 -2
-86 -1 -86 2 0 17 -111 113 -163 142 -57 30 -70 33 -147 33 -78 0 -90 -3 -148
-34 -67 -36 -158 -126 -207 -203 l-29 -46 -80 82 c-202 205 -431 293 -629 241
-172 -45 -277 -157 -342 -365 -47 -152 -65 -355 -56 -630 l4 -105 -102 -7
c-236 -16 -380 -84 -411 -196 -15 -54 -12 -141 6 -203 47 -162 222 -309 485
-408 57 -22 97 -42 89 -44 -8 -3 -37 -10 -64 -17 -65 -15 -161 -64 -218 -111
-26 -21 -50 -39 -55 -38 -4 0 -30 27 -58 60 -124 150 -364 363 -584 520 -411
293 -661 641 -738 1027 -23 119 -23 363 1 492 38 203 137 452 251 626 31 47
54 88 52 91 -3 2 -26 -23 -51 -56z m4468 -541 c70 -27 152 -104 184 -174 65
-138 49 -324 -44 -508 -19 -37 -34 -71 -34 -75 0 -5 22 -18 49 -30 110 -51
189 -174 212 -331 13 -96 2 -270 -26 -390 -55 -232 -194 -429 -382 -541 l-68
-40 -90 16 c-115 20 -298 13 -407 -16 -202 -53 -375 -158 -538 -328 -58 -60
-121 -132 -140 -161 -19 -29 -39 -52 -44 -52 -5 0 -18 -7 -28 -17 -30 -27 -29
-11 3 41 33 53 32 65 -6 48 -14 -6 -25 -8 -25 -4 0 4 41 72 90 152 49 79 87
147 84 149 -2 3 -17 -7 -32 -20 -77 -69 -76 -70 -42 10 17 40 29 75 27 77 -2
3 -18 -11 -36 -31 -17 -20 -31 -34 -31 -33 0 2 11 39 25 82 14 44 23 81 21 83
-2 2 -23 -29 -46 -69 -71 -120 -70 -119 -63 -54 7 71 -7 73 -33 4 l-19 -53 -5
45 c-5 39 -7 43 -16 25 -14 -25 -68 -191 -88 -270 -24 -97 -56 -305 -56 -369
0 -33 -2 -57 -5 -55 -10 11 -64 312 -75 422 -18 176 -8 514 19 640 32 144 68
250 121 357 136 271 323 470 501 536 24 9 73 19 109 23 l65 6 -3 33 c-6 61 18
251 44 339 75 261 217 429 435 513 43 17 102 34 131 40 77 13 196 4 262 -20z
m-2401 -161 c123 -41 297 -174 393 -299 21 -27 41 -50 44 -50 3 0 25 35 50 76
55 93 149 190 216 223 77 39 140 39 217 3 75 -34 135 -86 163 -137 15 -29 23
-35 39 -29 11 4 51 9 88 11 59 4 76 1 123 -22 93 -45 177 -174 163 -250 -3
-22 -10 -79 -14 -127 l-7 -86 -51 -13 c-132 -31 -240 -95 -355 -211 -102 -104
-183 -221 -258 -373 -101 -206 -144 -396 -160 -693 -7 -129 -16 -150 -30 -67
-15 91 -25 68 -20 -45 6 -115 4 -118 -26 -45 -12 29 -13 27 -18 -38 l-5 -69
-29 84 c-35 99 -51 122 -42 58 9 -70 -8 -28 -39 93 -16 59 -31 107 -34 107 -4
0 -1 -37 5 -82 20 -132 18 -142 -17 -78 -39 71 -53 85 -45 45 22 -118 20 -120
-30 -40 -17 26 -24 32 -21 18 3 -13 4 -23 2 -23 -2 0 -33 54 -71 120 -37 66
-69 118 -72 116 -2 -3 26 -78 62 -168 l67 -163 -51 50 c-55 54 -64 48 -24 -16
14 -23 24 -42 22 -44 -2 -2 -47 31 -101 72 -54 41 -101 73 -103 70 -2 -2 19
-23 48 -45 29 -22 76 -65 103 -93 l50 -53 -55 45 c-170 140 -327 221 -520 269
-457 113 -710 264 -780 464 -39 109 -19 213 48 260 77 53 221 86 376 86 l86 0
-6 128 c-3 70 -7 135 -9 145 -2 10 1 87 6 170 21 359 131 587 309 645 36 12
79 23 95 25 51 8 157 -4 218 -24z m-278 -1969 c86 -27 210 -88 290 -142 135
-92 332 -275 340 -316 2 -12 7 -28 11 -35 4 -6 -14 8 -40 33 -25 24 -46 39
-46 33 0 -7 4 -14 10 -18 5 -3 19 -19 31 -36 21 -30 19 -29 -91 26 -62 31
-114 54 -116 52 -3 -2 25 -23 61 -47 36 -24 64 -44 62 -46 -2 -2 -30 5 -63 15
-32 11 -61 18 -63 15 -2 -2 6 -16 20 -30 22 -24 22 -26 4 -21 -11 3 -56 8
-100 11 -77 6 -78 5 -40 -8 41 -13 40 -14 -20 -34 -29 -10 -29 -10 -5 -11 14
-1 32 -6 40 -12 11 -7 -4 -8 -50 -3 -180 21 -281 -21 -387 -163 -56 -75 -63
-81 -176 -139 -64 -33 -133 -76 -152 -94 -67 -65 -103 -173 -149 -445 -55
-324 -189 -692 -283 -776 -183 -165 -452 -9 -555 321 -20 64 -23 96 -23 220 0
126 3 154 24 215 36 107 80 184 145 250 l59 60 2 95 c5 177 56 303 169 416 72
72 118 102 214 140 51 20 55 24 81 85 86 203 244 351 432 404 79 22 272 14
364 -15z m2486 1 c171 -36 287 -85 434 -185 166 -113 321 -291 400 -458 90
-190 88 -387 -4 -497 l-28 -35 28 -60 c86 -182 57 -370 -78 -504 -72 -72 -121
-96 -193 -96 -157 -1 -341 183 -537 535 -153 275 -315 493 -446 599 -34 28
-100 70 -146 93 -83 41 -87 42 -187 42 -56 0 -97 3 -91 7 7 4 24 8 39 8 39 0
44 18 6 22 l-33 4 38 19 c20 10 37 22 37 25 0 4 -28 1 -62 -6 -91 -19 -98 -18
-60 16 17 16 32 32 32 35 0 3 -12 5 -27 5 l-28 1 30 27 c17 15 48 42 70 59 21
18 36 35 34 38 -3 3 -25 -2 -49 -10 -55 -19 -55 -19 -36 10 31 47 15 39 -56
-30 -40 -39 -62 -56 -49 -38 29 44 142 145 226 205 225 160 488 220 736 169z
m-2066 -625 c18 -8 68 -24 110 -35 101 -28 158 -58 246 -130 72 -58 179 -161
167 -161 -3 0 -48 20 -99 44 -213 101 -430 138 -592 102 -252 -56 -418 -234
-737 -786 -126 -220 -240 -403 -246 -397 -3 2 5 26 16 52 34 80 96 294 115
395 93 506 96 513 283 609 98 50 128 70 164 113 92 110 153 164 203 181 54 19
138 22 203 7 34 -8 48 -7 65 5 27 19 58 19 102 1z m1481 -35 c177 -88 351
-294 554 -656 127 -226 248 -390 347 -470 65 -53 49 -59 -49 -20 -147 59 -260
175 -469 481 -207 305 -315 423 -444 484 -186 87 -428 54 -608 -84 -27 -21
-51 -36 -53 -33 -9 9 98 147 148 191 115 100 275 159 412 152 68 -4 91 -10
162 -45z m-1417 -191 c99 -13 129 -27 238 -114 98 -78 205 -201 264 -303 49
-86 103 -239 118 -333 14 -85 14 -437 0 -576 -26 -262 -97 -527 -199 -740
-103 -217 -98 -212 -330 -329 l-200 -103 0 228 c0 224 -10 413 -30 560 -76
572 -173 952 -354 1384 -25 60 -46 114 -46 121 0 14 81 86 143 128 68 46 184
81 287 86 14 0 63 -4 109 -9z"/>
<path d="M3645 5442 c-15 -37 -33 -54 -122 -114 -111 -74 -132 -101 -149 -191
-3 -22 -10 -34 -13 -28 -10 16 -77 41 -111 41 -34 0 -39 -10 -11 -27 32 -20
61 -94 61 -156 0 -56 0 -56 -47 -89 -66 -44 -226 -200 -279 -271 l-44 -59 0
64 c0 34 -6 95 -12 133 -6 39 -12 124 -12 191 -1 140 -7 154 -68 154 -45 0
-88 -35 -88 -72 1 -30 32 -98 69 -151 39 -55 50 -108 51 -244 0 -126 -12 -197
-45 -263 -53 -106 -110 -327 -130 -505 l-7 -59 -31 75 c-65 154 -83 177 -279
367 -74 72 -89 82 -121 82 -58 0 -96 -66 -67 -119 13 -26 95 -58 168 -67 61
-6 64 -8 120 -70 117 -127 187 -318 203 -549 16 -238 14 -538 -5 -647 -32
-191 -108 -380 -207 -511 -48 -63 -50 -70 -36 -85 15 -14 18 -14 38 4 55 49
153 224 202 359 13 39 35 120 48 180 23 106 24 126 24 545 0 490 2 505 75 655
44 90 101 164 175 224 46 38 54 41 115 42 85 1 138 18 163 51 18 24 19 32 8
67 -24 81 -88 77 -187 -12 -32 -29 -82 -69 -110 -90 -59 -42 -120 -106 -160
-167 -16 -23 -30 -38 -32 -32 -6 18 57 191 99 276 62 121 134 221 234 321 112
113 177 159 210 151 38 -10 92 -71 112 -126 10 -27 21 -50 24 -50 11 0 21 127
14 161 -7 29 -6 31 16 22 48 -17 132 -9 179 16 116 62 157 80 192 86 21 4 38
9 38 12 0 14 -57 76 -89 95 -20 12 -37 23 -39 24 -2 1 8 34 22 73 l26 72 -23
8 c-12 5 -44 12 -72 15 l-50 7 -2 82 c-2 45 -7 96 -11 112 l-9 30 -18 -43z"/>
</g>
</svg>
