<?xml version="1.0" encoding="utf-8"?>
<svg version="1.0" xmlns="http://www.w3.org/2000/svg" width="1280.000000pt" height="1205.000000pt" viewBox="0 0 1280.000000 1205.000000" preserveAspectRatio="xMidYMid meet">
  <g transform="translate(0.000000,1205.000000) scale(0.100000,-0.100000)" fill="#8bc34a" stroke="none">
    <path d="M3654 12040 c-56 -18 -103 -83 -92 -130 2 -9 -16 -17 -53 -25 -113 -23 -169 -80 -169 -169 0 -60 29 -129 61 -146 41 -23 113 -7 194 43 66 40 72 42 54 18 -17 -23 -18 -32 -9 -57 6 -16 23 -41 38 -56 38 -41 78 -37 196 19 l98 47 19 -23 c10 -13 19 -34 19 -47 0 -48 -20 -69 -117 -119 -129 -67 -346 -195 -578 -341 -430 -272 -608 -365 -784 -410 -80 -21 -78 -15 -60 -125 l12 -69 36 6 c211 38 466 158 850 398 366 230 602 365 761 436 305 137 538 189 784 177 257 -14 465 -88 706 -252 61 -41 113 -75 116 -75 3 0 32 23 64 52 l59 51 -79 63 c-224 176 -432 277 -681 331 -128 27 -427 25 -569 -6 -86 -18 -332 -95 -403 -126 -15 -6 -16 -4 -7 20 24 62 3 191 -46 293 -39 80 -122 164 -194 196 -66 30 -173 42 -226 26z" style="fill: rgb(255, 214, 230);"/>
    <path d="M695 11951 c-259 -42 -474 -201 -586 -436 -54 -112 -72 -191 -73 -315 -1 -299 169 -553 502 -750 61 -36 293 -143 298 -137 1 1 -5 48 -14 103 l-15 102 -70 33 c-163 76 -318 203 -398 325 -121 186 -125 411 -12 603 44 73 148 174 221 214 64 35 189 67 259 67 81 0 181 -26 265 -69 l75 -38 71 59 c40 33 72 63 72 67 0 23 -228 134 -322 156 -80 19 -208 26 -273 16z" style="fill: rgb(255, 214, 230);"/>
    <path d="M1931 11904 c-294 -51 -596 -221 -797 -450 -65 -74 -178 -224 -169 -224 3 0 63 14 133 31 106 26 130 36 147 58 137 182 354 318 617 386 135 35 356 45 498 21 330 -54 638 -225 897 -499 l73 -77 85 47 c46 27 85 51 85 55 0 16 -250 259 -325 315 -215 161 -423 259 -675 320 -89 21 -134 26 -295 29 -136 2 -214 -1 -274 -12z" style="fill: rgb(184, 227, 208);"/>
    <path d="M 6945 11604 C 6651 11552 6430 11452 5880 11123 C 5418 10847 5304 10788 5081 10709 C 4988 10677 4988 10677 5069 10735 C 5131 10780 5193 10855 5210 10906 C 5225 10951 5217 11030 5193 11071 C 5179 11095 5077 11170 5058 11170 C 5055 11170 5055 11155 5057 11138 C 5059 11119 5052 11132 5041 11168 C 5007 11283 4953 11316 4813 11307 C 4723 11302 4687 11286 4668 11245 C 4651 11208 4674 11167 4749 11098 C 4785 11065 4805 11043 4793 11049 C 4781 11055 4760 11060 4745 11060 C 4711 11060 4690 11012 4690 10931 C 4690 10881 4694 10866 4716 10840 C 4731 10823 4762 10800 4786 10788 C 4813 10776 4830 10761 4830 10751 C 4830 10725 4782 10684 4716 10654 C 4662 10629 4650 10628 4570 10633 C 4307 10652 4043 10764 3794 10961 L 3733 11009 L 3666 10964 L 3598 10918 L 3641 10882 C 3889 10668 4154 10529 4420 10473 C 4545 10447 4772 10450 4907 10479 C 5175 10535 5409 10642 5820 10896 C 6480 11302 6682 11403 6977 11471 C 7105 11501 7345 11508 7476 11486 C 7622 11461 7842 11385 7853 11356 C 7857 11347 7848 11317 7835 11288 C 7791 11194 7809 11060 7871 11016 C 7918 10983 8040 11011 8040 11055 C 8040 11086 8058 11069 8069 11028 C 8084 10967 8115 10921 8151 10906 L 8183 10893 L 8114 10872 C 7452 10673 6975 10639 6598 10764 C 6451 10813 6324 10879 6206 10969 L 6147 11014 L 6123 10984 C 6061 10909 6048 10889 6056 10881 C 6083 10858 6192 10780 6235 10753 C 6523 10577 6795 10510 7174 10523 C 7546 10536 7808 10599 8625 10871 C 9470 11153 9709 11212 10080 11227 C 10285 11235 10329 11222 10370 11140 C 10404 11072 10404 11065 10364 11051 C 10277 11020 10207 10923 10212 10842 C 10215 10796 10216 10795 10258 10781 C 10298 10769 10304 10769 10350 10792 C 10378 10806 10400 10816 10400 10814 C 10400 10813 10384 10789 10365 10760 C 10318 10691 10317 10640 10360 10600 C 10428 10537 10572 10521 10626 10571 C 10665 10606 10680 10651 10680 10727 C 10680 10779 10683 10791 10692 10782 C 10699 10775 10728 10770 10757 10770 C 10815 10770 10830 10784 10830 10840 C 10830 10885 10808 10921 10748 10975 C 10678 11038 10610 11070 10542 11070 L 10490 11070 L 10464 11127 C 10451 11159 10432 11192 10423 11202 C 10408 11219 10410 11220 10461 11220 C 10548 11220 10803 11192 10968 11165 C 11179 11129 11426 11065 11675 10980 C 12247 10784 12327 10763 12475 10773 C 12653 10784 12774 10874 12796 11009 C 12810 11099 12745 11188 12634 11230 C 12557 11259 12360 11272 12360 11248 C 12360 11236 12379 11230 12435 11221 C 12570 11201 12663 11154 12700 11087 C 12775 10955 12580 10831 12360 10869 C 12271 10885 12206 10907 11907 11021 C 11532 11165 11338 11226 11080 11279 C 10649 11368 10138 11393 9785 11341 C 9471 11294 9199 11221 8505 10995 C 8319 10935 8269 10923 8320 10950 C 8352 10967 8380 11020 8380 11063 C 8380 11116 8358 11162 8306 11218 C 8255 11273 8252 11280 8279 11280 C 8290 11280 8310 11294 8323 11312 C 8344 11338 8346 11348 8338 11369 C 8312 11440 8236 11480 8116 11487 C 8019 11493 7962 11480 7917 11440 L 7884 11411 L 7778 11466 C 7648 11532 7496 11584 7370 11605 C 7254 11623 7053 11623 6945 11604 Z" style="fill: rgb(184, 227, 208);"/>
    <path d="M1493 11484 l-63 -56 56 -71 c136 -174 175 -307 213 -730 4 -54 11 -100 13 -103 3 -3 47 3 98 12 l92 17 -7 86 c-25 336 -83 556 -190 722 -49 75 -132 179 -144 179 -3 0 -34 -26 -68 -56z" style="fill: rgb(255, 214, 230);"/>
    <path d="M1410 11219 c-325 -22 -677 -173 -868 -371 l-44 -45 77 -63 c85 -69 70 -70 160 9 130 114 318 215 482 258 73 19 133 27 236 30 75 3 137 7 137 9 0 10 -62 170 -68 174 -4 3 -54 3 -112 -1z" style="fill: rgb(184, 227, 208);"/>
    <path d="M1833 11204 c4 -11 13 -48 22 -84 l16 -66 76 -34 c137 -61 233 -183 272 -343 26 -107 23 -389 -6 -504 -5 -23 -3 -23 80 -23 73 0 86 3 91 18 16 54 28 243 24 380 -6 178 -27 266 -93 377 -81 137 -264 256 -449 290 -34 7 -38 6 -33 -11z" style="fill: rgb(184, 227, 208);"/>
    <path d="M1015 10865 l-120 -54 -13 -68 c-17 -90 -10 -315 13 -403 83 -313 309 -495 641 -517 l90 -6 15 86 c17 97 17 97 -50 97 -54 0 -180 34 -242 66 -115 58 -207 176 -245 314 -29 102 -24 316 9 440 14 52 25 95 24 96 -1 1 -56 -22 -122 -51z" style="fill: rgb(255, 214, 230);"/>
    <path d="M241 10488 c-50 -106 -85 -213 -102 -308 -16 -92 -16 -274 1 -355 52 -254 202 -525 462 -838 41 -50 48 -65 48 -102 0 -32 -7 -51 -25 -73 -44 -53 -90 -64 -295 -71 -178 -6 -187 -7 -232 -33 -78 -47 -106 -96 -93 -164 6 -36 7 -36 45 -31 l38 5 -15 -36 c-25 -60 -34 -142 -22 -200 19 -93 106 -182 179 -182 76 0 104 62 98 217 -3 99 4 127 15 59 15 -94 67 -110 142 -44 81 71 92 129 50 250 -14 39 -25 75 -25 79 0 4 15 11 33 14 74 17 149 75 168 132 l11 33 115 -141 c381 -467 542 -759 614 -1109 19 -93 23 -146 23 -280 0 -91 -6 -199 -13 -240 -58 -342 -184 -642 -425 -1014 l-70 -109 29 -83 c16 -46 32 -84 35 -84 3 0 39 49 81 108 340 477 513 890 551 1314 29 328 -56 679 -245 1013 -101 179 -227 356 -446 629 -343 425 -448 574 -531 749 -60 127 -86 204 -101 309 -22 152 4 320 73 470 l31 67 -34 28 c-18 15 -54 45 -81 66 l-48 39 -39 -84z" style="fill: rgb(184, 227, 208);"/>
    <path d="M2095 10543 c-189 -66 -523 -113 -805 -113 l-117 0 17 -77 17 -78 189 1 c119 0 237 7 319 18 141 19 339 58 401 80 l39 13 -4 62 c-2 34 -6 73 -10 85 -6 22 -7 23 -46 9z" style="fill: rgb(184, 227, 208);"/>
    <path d="M1783 10237 l-63 -10 0 -172 c0 -562 -114 -868 -447 -1204 l-133 -134 35 -51 c67 -95 61 -91 87 -73 13 9 60 49 106 91 269 243 416 489 481 808 30 143 41 262 48 521 l6 237 -29 -1 c-16 -1 -57 -6 -91 -12z" style="fill: rgb(184, 227, 208);"/>
    <path d="M2295 10093 c-66 -8 -244 -44 -293 -58 l-52 -16 0 -79 c0 -115 -5 -111 103 -84 137 35 280 54 409 54 231 0 381 -67 445 -198 56 -115 27 -276 -65 -352 -169 -139 -419 -17 -481 234 -7 27 -12 91 -12 144 l0 95 -80 -6 c-44 -3 -83 -8 -86 -11 -4 -3 -6 -59 -6 -123 0 -94 5 -133 23 -188 69 -219 224 -364 424 -397 221 -37 446 112 502 332 22 86 15 224 -15 299 -75 186 -251 311 -493 351 -60 9 -258 11 -323 3z" style="fill: rgb(255, 214, 230);"/>
    <path d="M844 8468 c-254 -264 -400 -570 -445 -932 -16 -135 -7 -416 20 -571 62 -357 161 -654 442 -1323 232 -552 296 -727 345 -939 46 -205 44 -454 -6 -693 -51 -243 -122 -425 -317 -815 -198 -395 -247 -514 -298 -727 -93 -391 -40 -835 158 -1329 30 -74 106 -246 169 -384 64 -137 126 -281 138 -319 44 -133 26 -234 -54 -304 -114 -100 -266 5 -266 183 0 25 -4 35 -13 32 -8 -3 -12 -31 -12 -98 1 -76 5 -102 22 -134 56 -106 161 -141 269 -91 119 55 178 196 154 366 -16 112 -49 206 -181 504 -240 541 -308 819 -296 1217 5 196 32 368 51 334 23 -39 102 -118 138 -136 23 -12 38 -27 38 -38 0 -10 -14 -58 -31 -107 -53 -150 -41 -208 51 -247 l48 -20 -10 -36 c-51 -184 151 -261 287 -109 38 41 85 130 85 160 0 9 12 40 27 69 51 103 38 211 -35 282 -49 48 -78 57 -176 57 -195 0 -342 82 -381 214 -15 48 -14 50 21 140 44 110 54 131 205 416 149 283 209 417 269 600 81 248 120 489 120 749 0 342 -72 586 -400 1366 -279 662 -371 955 -414 1319 l-6 50 31 -47 c206 -312 777 -171 783 192 1 89 -28 134 -103 156 -23 7 -23 6 -16 -41 8 -61 -6 -49 -29 22 -47 146 -141 215 -260 193 -94 -17 -136 -59 -136 -135 0 -31 8 -45 48 -84 l47 -48 -32 1 c-55 2 -93 -53 -93 -135 0 -39 5 -47 61 -100 67 -65 72 -88 16 -88 -58 0 -136 29 -178 67 -113 103 -154 342 -95 557 67 248 179 449 364 656 l61 68 -63 56 c-35 31 -66 56 -68 56 -2 0 -26 -24 -54 -52z m142 -6508 l-14 -45 -1 46 c-1 47 6 66 21 51 4 -4 2 -28 -6 -52z" style="fill: rgb(255, 214, 230);"/>
    <path d="M729 5678 c-45 -73 -230 -459 -265 -553 -62 -169 -77 -262 -78 -490 -1 -264 20 -350 126 -512 l40 -63 -17 -64 c-50 -182 32 -311 205 -324 37 -2 84 -2 104 2 44 8 91 47 116 95 14 28 28 40 58 49 44 13 126 81 146 121 60 119 -21 277 -131 256 -22 -4 -50 -22 -77 -49 l-43 -43 -19 34 c-46 86 -180 87 -286 3 l-37 -30 -29 78 c-55 142 -57 154 -56 367 1 110 6 229 13 265 33 179 148 444 278 638 l63 93 -40 79 c-22 44 -42 80 -45 80 -3 0 -14 -15 -26 -32z m141 -1632 c0 -2 -8 -10 -17 -17 -16 -13 -17 -12 -4 4 13 16 21 21 21 13z" style="fill: rgb(184, 227, 208);"/>
  </g>
</svg>